<svg xmlns="http://www.w3.org/2000/svg" xmlns:xlink="http://www.w3.org/1999/xlink" width="500" zoomAndPan="magnify" viewBox="0 0 375 374.999991" height="500" preserveAspectRatio="xMidYMid meet" version="1.0"><defs><g/><clipPath id="d793fda4a2"><path d="M 169.628906 145.898438 L 332.46875 145.898438 L 332.46875 222.183594 L 169.628906 222.183594 Z M 169.628906 145.898438 " clip-rule="nonzero"/></clipPath><clipPath id="f1cc62a13c"><path d="M 176 265 L 288.554688 265 L 288.554688 303.167969 L 176 303.167969 Z M 176 265 " clip-rule="nonzero"/></clipPath><clipPath id="18588f9e94"><path d="M 51.21875 150 L 136 150 L 136 215 L 51.21875 215 Z M 51.21875 150 " clip-rule="nonzero"/></clipPath></defs><path fill="#f0f0f0" d="M 173.679688 40.1875 C 174.761719 31.269531 188.382812 25.671875 204.148438 26.015625 C 214.28125 26.914062 223.863281 30.003906 229.996094 34.277344 C 235.035156 36.519531 240.839844 38.507812 246.53125 39.832031 C 251.960938 41.28125 256.484375 42.011719 259.316406 41.988281 C 260.28125 40.839844 262.867188 41.390625 266.582031 43.40625 C 280.742188 52.277344 293.210938 63.601562 303.394531 76.785156 C 302.613281 75.898438 302.054688 75.496094 301.640625 75.480469 C 302.375 79.144531 299.0625 80.292969 291.976562 77.113281 C 291.945312 77.140625 291.828125 77.070312 291.792969 77.097656 C 291.675781 77.027344 291.558594 76.953125 291.523438 76.984375 C 283.328125 74.136719 274.046875 67.195312 267.546875 59.464844 C 262.546875 56.125 256.792969 53.550781 250.855469 52.277344 C 244.632812 51.101562 239.101562 51.507812 234.453125 53.136719 C 229.824219 59.605469 219.613281 63.941406 206.972656 63.339844 C 187.570312 63.109375 172.605469 52.007812 173.679688 40.1875 " fill-opacity="1" fill-rule="evenodd"/><g clip-path="url(#d793fda4a2)"><path fill="#f0f0f0" d="M 169.691406 184.835938 C 169.585938 163.40625 187.042969 145.90625 208.554688 145.953125 C 222.566406 146.050781 234.648438 153.671875 241.140625 164.835938 C 246.992188 168.742188 253.957031 170.949219 261.273438 170.867188 C 268.347656 170.769531 274.695312 168.519531 279.742188 164.652344 C 284.921875 154.332031 293.726562 147.757812 302.980469 148.207031 C 303.074219 148.195312 303.167969 148.183594 303.261719 148.171875 C 303.371094 148.269531 303.464844 148.257812 303.558594 148.246094 C 311.597656 148.78125 317.84375 155.285156 320.839844 164.398438 C 323.207031 167.449219 325.726562 169.148438 328.046875 168.984375 C 329.898438 168.792969 331.234375 166.902344 332.027344 164.121094 C 332.300781 160.617188 332.492188 157.664062 332.519531 155.691406 C 332.632812 158.019531 332.695312 160.363281 332.695312 162.722656 C 332.695312 174.007812 331.355469 184.984375 328.84375 195.503906 L 328.828125 195.488281 C 329.074219 194.246094 329.300781 192.710938 329.558594 190.753906 C 329.289062 188.84375 328.289062 187.949219 326.484375 188.730469 C 324.203125 189.527344 321.476562 191.953125 318.726562 195.625 C 314.617188 205.003906 307.847656 212.257812 300.125 214.035156 C 300.058594 214 299.9375 214.074219 299.867188 214.042969 C 299.75 214.121094 299.679688 214.085938 299.5625 214.160156 C 290.660156 215.738281 282.699219 210.648438 278.410156 201.320312 C 273.679688 198.136719 267.546875 196.378906 260.570312 196.703125 C 253.332031 197.042969 246.328125 199.585938 240.402344 203.59375 C 233.644531 214.375 221.703125 221.710938 208.070312 222.074219 C 187.191406 222.203125 169.953125 205.730469 169.691406 184.835938 " fill-opacity="1" fill-rule="evenodd"/></g><g clip-path="url(#f1cc62a13c)"><path fill="#f0f0f0" d="M 176.097656 299.9375 C 174.777344 294.054688 187.953125 287.546875 205.574219 287.246094 C 216.90625 286.480469 225.988281 288.652344 229.691406 292.039062 C 233.640625 292.441406 238.402344 291.988281 243.890625 290.542969 C 249.082031 288.972656 254.171875 286.761719 258.789062 284.214844 C 265.300781 278.957031 274.121094 273.097656 281.289062 269.453125 C 281.300781 269.464844 281.417969 269.386719 281.53125 269.308594 C 281.542969 269.320312 281.65625 269.242188 281.773438 269.160156 C 285.3125 266.96875 287.640625 265.601562 288.542969 265.058594 C 275.144531 277.707031 259.257812 287.75 241.707031 294.386719 L 241.652344 294.378906 C 240.726562 294.722656 239.800781 295.054688 238.605469 295.472656 C 233.777344 297 228.78125 298.460938 224.296875 299.660156 C 223.886719 299.765625 223.339844 299.898438 222.792969 300.023438 L 222.777344 300.050781 C 212.863281 302.265625 202.554688 303.441406 191.972656 303.441406 C 189.746094 303.441406 187.527344 303.382812 185.324219 303.28125 L 176.097656 299.9375 " fill-opacity="1" fill-rule="evenodd"/></g><path fill="#f0f0f0" d="M 60.328125 112.933594 L 60.355469 112.9375 C 60.46875 112.683594 60.660156 112.304688 60.878906 111.933594 C 62.160156 110.179688 64.1875 107.242188 66.601562 103.453125 C 70.984375 95.265625 76.90625 88.054688 82.832031 84.871094 C 82.941406 84.78125 82.972656 84.804688 83.085938 84.722656 C 83.117188 84.746094 83.226562 84.660156 83.257812 84.679688 C 90.464844 81.703125 96.210938 84.550781 98.855469 91.550781 C 102.617188 93.710938 107.757812 94.675781 114.011719 93.707031 C 120.472656 92.890625 126.949219 90.238281 132.527344 86.46875 C 139.296875 77.035156 150.59375 70.351562 163.101562 69.441406 C 182.617188 68.699219 198.722656 82.386719 198.90625 100.996094 C 199.074219 121.0625 181.691406 138.074219 160.46875 138.238281 C 146.820312 138.484375 135.472656 131.515625 129.824219 121.144531 C 124.542969 117.808594 118.246094 116.125 111.53125 116.707031 C 105.152344 117.234375 99.257812 119.910156 94.472656 123.824219 C 89.007812 134.160156 80.671875 141.363281 72.679688 142.046875 C 72.601562 142.035156 72.503906 142.140625 72.425781 142.125 C 72.347656 142.113281 72.269531 142.101562 72.191406 142.085938 C 65.503906 142.882812 61.253906 137.90625 60.175781 130.246094 C 58.960938 128.105469 57.582031 127.460938 56.191406 128.6875 C 55.558594 129.398438 55.007812 130.710938 54.542969 132.480469 L 54.523438 132.488281 C 55.996094 125.78125 57.941406 119.25 60.328125 112.933594 " fill-opacity="1" fill-rule="evenodd"/><path fill="#f0f0f0" d="M 64.253906 221.839844 L 64.277344 221.839844 C 65.484375 223.914062 66.441406 224.382812 67.054688 223.3125 C 66.808594 217.507812 70.0625 214.492188 76.445312 216.628906 C 76.5 216.605469 76.609375 216.695312 76.664062 216.667969 C 76.71875 216.644531 76.828125 216.730469 76.886719 216.707031 C 84.570312 218.714844 93.152344 226.144531 99.175781 235.578125 C 104.039062 239.472656 109.730469 242.246094 115.789062 243.332031 C 122.101562 244.308594 127.941406 243.34375 132.800781 240.851562 C 137.722656 232.164062 148.320312 226.367188 161.539062 227 C 182.042969 227.480469 198.757812 242.511719 198.53125 259.289062 C 198.289062 273.796875 183.476562 283.605469 165.765625 282.621094 C 154.328125 281.386719 143.878906 276.09375 137.132812 268.785156 C 131.722656 265.507812 125.667969 263.003906 119.71875 261.777344 C 113.941406 260.371094 109.339844 260.390625 106.226562 261.441406 C 104.757812 265.804688 100.148438 266.117188 93.867188 262.253906 C 93.855469 262.261719 93.75 262.171875 93.640625 262.082031 C 93.628906 262.09375 93.523438 262.003906 93.511719 262.011719 C 88.382812 257.804688 82.433594 251.046875 77.347656 244.3125 C 76.691406 243.398438 76.125 242.59375 75.644531 241.898438 L 75.640625 241.894531 C 71.320312 235.5625 67.511719 228.859375 64.253906 221.839844 " fill-opacity="1" fill-rule="evenodd"/><path fill="#f0f0f0" d="M 109.9375 49.0625 C 115.339844 45.035156 122.066406 40.964844 128.210938 38.179688 C 139.8125 34.074219 147.75 36.167969 145.046875 44.265625 C 142.746094 54.585938 128.527344 66.34375 114.253906 69.164062 C 106.453125 71.140625 101.1875 69.695312 99.363281 66.292969 C 96.644531 66.203125 93.496094 67.117188 90.007812 69.132812 C 86.804688 71.296875 83.675781 74.136719 80.738281 77.351562 C 77.007812 82.4375 73.496094 87.183594 71.175781 90.542969 L 71.167969 90.542969 C 78.640625 78.0625 87.996094 66.835938 98.839844 57.253906 L 99.179688 56.964844 C 102.296875 54.550781 106.046875 51.824219 109.9375 49.0625 " fill-opacity="1" fill-rule="evenodd"/><path fill="#f0f0f0" d="M 307.570312 97.757812 C 308.539062 93.480469 310.972656 92.359375 314.296875 95.101562 C 316.148438 97.125 318.214844 100.644531 320.175781 104.699219 L 320.226562 104.742188 C 323.382812 111.707031 325.980469 118.980469 327.976562 126.492188 L 327.964844 126.542969 C 329.972656 136.039062 329.386719 142.65625 325.425781 141.320312 C 321.628906 140.597656 317.078125 135.402344 313.453125 128.183594 C 309.941406 125.0625 305.835938 122.957031 301.304688 122.191406 C 296.429688 121.484375 291.671875 122.320312 287.335938 124.410156 C 283.199219 131.578125 275.527344 136.140625 266.03125 135.6875 C 249.003906 135.03125 234.011719 119.699219 233.25 101.972656 C 232.28125 85.449219 244.785156 74.378906 260.441406 76.441406 C 269.1875 77.953125 277.304688 83.386719 282.882812 90.550781 C 287.683594 93.8125 292.636719 96.195312 297.324219 97.40625 C 301.632812 98.617188 305.117188 98.6875 307.570312 97.757812 " fill-opacity="1" fill-rule="evenodd"/><path fill="#f0f0f0" d="M 307.40625 228.203125 C 311.664062 221.277344 316.523438 215.671875 320.121094 213.609375 C 322.503906 211.855469 323.230469 212.726562 322.5 215.308594 L 322.519531 215.332031 C 317.070312 228.824219 309.605469 241.28125 300.476562 252.320312 C 298.894531 253.886719 298.011719 253.855469 298 252.203125 C 296.082031 252.386719 293.152344 253.265625 289.199219 255.128906 C 284.917969 256.898438 280.257812 259.445312 275.742188 262.417969 C 270.027344 268.257812 262.332031 273.023438 254.359375 275.09375 C 240.105469 277.910156 229.277344 270.640625 230.78125 257.71875 C 232.027344 242.992188 246.960938 228.964844 263.378906 227.394531 C 272.519531 226.273438 279.472656 229.652344 282.859375 235.316406 C 286.664062 236.664062 290.992188 236.753906 295.640625 235.332031 C 299.835938 234.007812 303.847656 231.464844 307.40625 228.203125 " fill-opacity="1" fill-rule="evenodd"/><g clip-path="url(#18588f9e94)"><path fill="#f0f0f0" d="M 84.558594 163.96875 C 88.863281 156.15625 96.226562 150.925781 105.015625 150.679688 C 121.039062 150.355469 134.957031 165.496094 135.210938 184.320312 C 135.824219 202.6875 122.9375 216.035156 107.371094 214.546875 C 98.863281 213.539062 91.261719 207.890625 86.351562 200.15625 C 82.058594 197.035156 77.585938 194.945312 73.363281 194.351562 C 69.507812 193.679688 66.382812 194.335938 64.144531 196.125 C 62.894531 201.605469 60.703125 204.136719 58.179688 202.296875 C 57.046875 201.167969 55.972656 198.550781 55.011719 195.019531 L 54.980469 194.996094 C 52.546875 184.632812 51.253906 173.828125 51.253906 162.722656 C 51.253906 162.507812 51.261719 162.296875 51.261719 162.082031 C 51.519531 157.234375 52.417969 153.832031 54.003906 153.519531 C 56.644531 153.152344 59.617188 157.082031 61.859375 163.839844 C 64.515625 166.367188 67.875 167.886719 71.796875 167.964844 C 76.09375 168.007812 80.464844 166.578125 84.558594 163.96875 " fill-opacity="1" fill-rule="evenodd"/></g><path fill="#f0f0f0" d="M 110.632812 277.09375 C 111.4375 276.203125 115.609375 276.726562 122.527344 279.316406 C 135.179688 282.992188 148.523438 291.167969 151.429688 296.050781 C 152.550781 297.183594 152.285156 297.585938 151.167969 297.394531 L 151.15625 297.417969 C 134.917969 292.5 119.925781 284.730469 106.75 274.6875 L 110.632812 277.09375 " fill-opacity="1" fill-rule="evenodd"/><g fill="#f0f0f0" fill-opacity="1"><g transform="translate(123.371657, 344.248924)"><g><path d="M 7.03125 -14.53125 L 7.03125 0 L 1.703125 0 L 1.703125 -23.40625 L 7.03125 -23.40625 L 16.34375 -8.875 L 16.40625 -8.875 L 16.40625 -23.40625 L 21.734375 -23.40625 L 21.734375 0 L 16.40625 0 L 7.09375 -14.53125 Z M 7.03125 -14.53125 "/></g></g></g><g fill="#f0f0f0" fill-opacity="1"><g transform="translate(148.678929, 344.248924)"><g><path d="M 19.6875 -23.40625 L 19.6875 -8.3125 C 19.6875 -5.4375 18.910156 -3.257812 17.359375 -1.78125 C 15.804688 -0.3125 13.535156 0.421875 10.546875 0.421875 C 7.566406 0.421875 5.300781 -0.3125 3.75 -1.78125 C 2.195312 -3.257812 1.421875 -5.4375 1.421875 -8.3125 L 1.421875 -23.40625 L 6.75 -23.40625 L 6.75 -9.875 C 6.75 -7.976562 7.046875 -6.660156 7.640625 -5.921875 C 8.242188 -5.191406 9.210938 -4.828125 10.546875 -4.828125 C 11.890625 -4.828125 12.859375 -5.191406 13.453125 -5.921875 C 14.054688 -6.660156 14.359375 -7.976562 14.359375 -9.875 L 14.359375 -23.40625 Z M 19.6875 -23.40625 "/></g></g></g><g fill="#f0f0f0" fill-opacity="1"><g transform="translate(171.659765, 344.248924)"><g><path d="M 9.015625 0 L -0.796875 -23.40625 L 5.21875 -23.40625 L 11.125 -8.03125 L 17.03125 -23.40625 L 23.046875 -23.40625 L 13.21875 0 Z M 9.015625 0 "/></g></g></g><g fill="#f0f0f0" fill-opacity="1"><g transform="translate(195.775457, 344.248924)"><g><path d="M 7.03125 -23.40625 L 7.03125 0 L 1.703125 0 L 1.703125 -23.40625 Z M 7.03125 -23.40625 "/></g></g></g><g fill="#f0f0f0" fill-opacity="1"><g transform="translate(206.386482, 344.248924)"><g><path d="M 1.703125 -23.40625 L 10.078125 -23.40625 C 12.328125 -23.40625 14.160156 -22.804688 15.578125 -21.609375 C 16.992188 -20.410156 17.703125 -18.691406 17.703125 -16.453125 C 17.703125 -14.734375 17.269531 -13.289062 16.40625 -12.125 C 15.550781 -10.96875 14.382812 -10.148438 12.90625 -9.671875 L 20.96875 0 L 14.1875 0 L 7.03125 -9.25 L 7.03125 0 L 1.703125 0 Z M 7.03125 -13.03125 L 7.65625 -13.03125 C 8.15625 -13.03125 8.570312 -13.035156 8.90625 -13.046875 C 9.25 -13.066406 9.632812 -13.132812 10.0625 -13.25 C 10.5 -13.363281 10.847656 -13.523438 11.109375 -13.734375 C 11.378906 -13.941406 11.609375 -14.242188 11.796875 -14.640625 C 11.992188 -15.035156 12.09375 -15.515625 12.09375 -16.078125 C 12.09375 -16.648438 11.992188 -17.132812 11.796875 -17.53125 C 11.609375 -17.925781 11.378906 -18.226562 11.109375 -18.4375 C 10.847656 -18.644531 10.5 -18.804688 10.0625 -18.921875 C 9.632812 -19.035156 9.25 -19.101562 8.90625 -19.125 C 8.570312 -19.144531 8.15625 -19.15625 7.65625 -19.15625 L 7.03125 -19.15625 Z M 7.03125 -13.03125 "/></g></g></g><g fill="#f0f0f0" fill-opacity="1"><g transform="translate(228.572929, 344.248924)"><g><path d="M 13.59375 -23.40625 L 23.046875 0 L 17.3125 0 L 15.578125 -4.6875 L 6.671875 -4.6875 L 4.9375 0 L -0.796875 0 L 8.65625 -23.40625 Z M 13.765625 -9.359375 L 11.15625 -16.171875 L 11.09375 -16.171875 L 8.484375 -9.359375 Z M 13.765625 -9.359375 "/></g></g></g></svg>