<svg xmlns="http://www.w3.org/2000/svg" xmlns:xlink="http://www.w3.org/1999/xlink" width="200" zoomAndPan="magnify" viewBox="0 0 150 74.999997" height="100" preserveAspectRatio="xMidYMid meet" version="1.0"><defs><g/><clipPath id="2e8c91d743"><path d="M 23 16.335938 L 43 16.335938 L 43 25 L 23 25 Z M 23 16.335938 " clip-rule="nonzero"/></clipPath><clipPath id="1749531ad5"><path d="M 22.414062 34.65625 L 47.121094 34.65625 L 47.121094 46.28125 L 22.414062 46.28125 Z M 22.414062 34.65625 " clip-rule="nonzero"/></clipPath><clipPath id="b02cee3caa"><path d="M 23.382812 52.800781 L 40.535156 52.800781 L 40.535156 58.335938 L 23.382812 58.335938 Z M 23.382812 52.800781 " clip-rule="nonzero"/></clipPath><clipPath id="31ec1df91d"><path d="M 4.371094 23 L 27 23 L 27 35 L 4.371094 35 Z M 4.371094 23 " clip-rule="nonzero"/></clipPath><clipPath id="42b4921f9d"><path d="M 4.371094 35 L 18 35 L 18 46 L 4.371094 46 Z M 4.371094 35 " clip-rule="nonzero"/></clipPath></defs><g clip-path="url(#2e8c91d743)"><path fill="#737373" d="M 23.03125 18.546875 C 23.195312 17.1875 25.269531 16.335938 27.671875 16.386719 C 29.214844 16.523438 30.675781 16.996094 31.613281 17.648438 C 32.378906 17.988281 33.261719 18.292969 34.128906 18.492188 C 34.957031 18.714844 35.648438 18.824219 36.078125 18.820312 C 36.226562 18.648438 36.621094 18.730469 37.1875 19.039062 C 39.34375 20.390625 41.242188 22.117188 42.796875 24.125 C 42.675781 23.988281 42.589844 23.929688 42.527344 23.925781 C 42.640625 24.484375 42.136719 24.660156 41.054688 24.175781 C 41.050781 24.179688 41.035156 24.167969 41.027344 24.171875 C 41.011719 24.160156 40.992188 24.148438 40.988281 24.15625 C 39.738281 23.722656 38.324219 22.664062 37.332031 21.484375 C 36.570312 20.976562 35.695312 20.585938 34.789062 20.390625 C 33.839844 20.210938 33 20.273438 32.289062 20.519531 C 31.585938 21.507812 30.027344 22.167969 28.101562 22.074219 C 25.144531 22.039062 22.867188 20.347656 23.03125 18.546875 " fill-opacity="1" fill-rule="evenodd"/></g><g clip-path="url(#1749531ad5)"><path fill="#737373" d="M 22.421875 40.589844 C 22.40625 37.324219 25.066406 34.65625 28.34375 34.664062 C 30.480469 34.679688 32.320312 35.839844 33.308594 37.542969 C 34.203125 38.136719 35.261719 38.472656 36.378906 38.460938 C 37.457031 38.445312 38.421875 38.105469 39.191406 37.515625 C 39.980469 35.941406 41.324219 34.941406 42.734375 35.007812 C 42.746094 35.007812 42.761719 35.003906 42.777344 35.003906 C 42.792969 35.019531 42.808594 35.015625 42.820312 35.015625 C 44.046875 35.097656 44.996094 36.085938 45.453125 37.476562 C 45.816406 37.941406 46.199219 38.199219 46.554688 38.175781 C 46.835938 38.144531 47.039062 37.855469 47.160156 37.433594 C 47.199219 36.898438 47.230469 36.449219 47.234375 36.148438 C 47.25 36.503906 47.261719 36.859375 47.261719 37.21875 C 47.261719 38.941406 47.058594 40.613281 46.675781 42.214844 L 46.671875 42.214844 C 46.710938 42.023438 46.742188 41.789062 46.785156 41.492188 C 46.742188 41.199219 46.589844 41.0625 46.316406 41.183594 C 45.96875 41.304688 45.550781 41.675781 45.132812 42.234375 C 44.507812 43.664062 43.476562 44.769531 42.296875 45.039062 C 42.289062 45.035156 42.269531 45.046875 42.257812 45.039062 C 42.242188 45.050781 42.230469 45.046875 42.210938 45.058594 C 40.855469 45.300781 39.640625 44.523438 38.988281 43.101562 C 38.269531 42.617188 37.332031 42.347656 36.269531 42.398438 C 35.167969 42.449219 34.101562 42.835938 33.195312 43.449219 C 32.167969 45.089844 30.347656 46.210938 28.269531 46.265625 C 25.089844 46.285156 22.460938 43.773438 22.421875 40.589844 " fill-opacity="1" fill-rule="evenodd"/></g><g clip-path="url(#b02cee3caa)"><path fill="#737373" d="M 23.398438 58.128906 C 23.195312 57.234375 25.203125 56.242188 27.890625 56.195312 C 29.617188 56.078125 31 56.410156 31.566406 56.925781 C 32.167969 56.988281 32.890625 56.917969 33.726562 56.699219 C 34.519531 56.457031 35.296875 56.121094 36 55.734375 C 36.992188 54.933594 38.335938 54.039062 39.425781 53.484375 C 39.429688 53.484375 39.445312 53.472656 39.464844 53.460938 C 39.464844 53.464844 39.484375 53.453125 39.5 53.441406 C 40.039062 53.105469 40.394531 52.898438 40.53125 52.816406 C 38.492188 54.742188 36.070312 56.273438 33.394531 57.285156 L 33.386719 57.28125 C 33.246094 57.335938 33.105469 57.386719 32.921875 57.449219 C 32.1875 57.683594 31.425781 57.90625 30.742188 58.085938 C 30.679688 58.105469 30.597656 58.125 30.511719 58.144531 L 30.511719 58.148438 C 29 58.484375 27.429688 58.664062 25.816406 58.664062 C 25.476562 58.664062 25.140625 58.65625 24.804688 58.640625 L 23.398438 58.128906 " fill-opacity="1" fill-rule="evenodd"/></g><g clip-path="url(#31ec1df91d)"><path fill="#737373" d="M 5.757812 29.632812 L 5.761719 29.632812 C 5.777344 29.59375 5.808594 29.535156 5.839844 29.480469 C 6.035156 29.214844 6.34375 28.765625 6.710938 28.1875 C 7.378906 26.941406 8.28125 25.84375 9.183594 25.355469 C 9.203125 25.34375 9.207031 25.347656 9.222656 25.335938 C 9.230469 25.335938 9.246094 25.324219 9.25 25.328125 C 10.347656 24.875 11.222656 25.308594 11.628906 26.375 C 12.199219 26.703125 12.984375 26.851562 13.9375 26.703125 C 14.921875 26.578125 15.910156 26.175781 16.757812 25.601562 C 17.789062 24.164062 19.511719 23.144531 21.417969 23.003906 C 24.390625 22.894531 26.84375 24.976562 26.875 27.8125 C 26.898438 30.871094 24.25 33.464844 21.015625 33.488281 C 18.9375 33.527344 17.207031 32.464844 16.347656 30.882812 C 15.542969 30.375 14.582031 30.121094 13.558594 30.207031 C 12.585938 30.289062 11.6875 30.695312 10.960938 31.292969 C 10.125 32.867188 8.855469 33.964844 7.640625 34.070312 C 7.625 34.066406 7.613281 34.082031 7.601562 34.082031 C 7.585938 34.078125 7.574219 34.078125 7.5625 34.074219 C 6.542969 34.195312 5.898438 33.4375 5.734375 32.269531 C 5.546875 31.945312 5.339844 31.847656 5.125 32.035156 C 5.03125 32.140625 4.945312 32.34375 4.875 32.613281 L 4.871094 32.613281 C 5.097656 31.589844 5.390625 30.59375 5.757812 29.632812 " fill-opacity="1" fill-rule="evenodd"/></g><path fill="#737373" d="M 6.355469 46.230469 L 6.359375 46.230469 C 6.542969 46.546875 6.6875 46.617188 6.78125 46.453125 C 6.742188 45.570312 7.238281 45.109375 8.210938 45.433594 C 8.21875 45.429688 8.238281 45.445312 8.246094 45.441406 C 8.253906 45.4375 8.269531 45.449219 8.28125 45.445312 C 9.449219 45.753906 10.757812 46.886719 11.675781 48.324219 C 12.417969 48.914062 13.285156 49.339844 14.207031 49.503906 C 15.167969 49.652344 16.058594 49.507812 16.800781 49.125 C 17.550781 47.800781 19.164062 46.917969 21.179688 47.015625 C 24.304688 47.089844 26.851562 49.378906 26.816406 51.9375 C 26.78125 54.144531 24.523438 55.640625 21.824219 55.492188 C 20.082031 55.304688 18.488281 54.496094 17.460938 53.382812 C 16.636719 52.882812 15.714844 52.5 14.808594 52.316406 C 13.925781 52.101562 13.226562 52.101562 12.75 52.261719 C 12.527344 52.929688 11.824219 52.976562 10.867188 52.386719 C 10.867188 52.386719 10.847656 52.375 10.832031 52.359375 C 10.832031 52.363281 10.816406 52.347656 10.8125 52.351562 C 10.03125 51.710938 9.125 50.679688 8.351562 49.652344 C 8.25 49.515625 8.164062 49.390625 8.089844 49.285156 C 7.429688 48.320312 6.851562 47.296875 6.355469 46.230469 " fill-opacity="1" fill-rule="evenodd"/><path fill="#737373" d="M 13.316406 19.898438 C 14.140625 19.285156 15.164062 18.667969 16.101562 18.242188 C 17.867188 17.617188 19.078125 17.933594 18.664062 19.167969 C 18.316406 20.742188 16.148438 22.535156 13.972656 22.964844 C 12.785156 23.265625 11.984375 23.042969 11.703125 22.527344 C 11.289062 22.511719 10.8125 22.652344 10.277344 22.957031 C 9.792969 23.289062 9.3125 23.722656 8.867188 24.210938 C 8.296875 24.984375 7.761719 25.707031 7.410156 26.222656 L 7.40625 26.222656 C 8.546875 24.320312 9.972656 22.609375 11.625 21.148438 L 11.675781 21.105469 C 12.152344 20.738281 12.722656 20.320312 13.316406 19.898438 " fill-opacity="1" fill-rule="evenodd"/><path fill="#737373" d="M 43.433594 27.320312 C 43.582031 26.667969 43.949219 26.496094 44.457031 26.914062 C 44.738281 27.222656 45.054688 27.761719 45.351562 28.378906 L 45.359375 28.386719 C 45.84375 29.445312 46.238281 30.554688 46.542969 31.699219 L 46.539062 31.707031 C 46.847656 33.152344 46.757812 34.164062 46.152344 33.957031 C 45.574219 33.847656 44.882812 33.058594 44.328125 31.957031 C 43.792969 31.480469 43.167969 31.160156 42.476562 31.042969 C 41.734375 30.9375 41.011719 31.0625 40.347656 31.382812 C 39.71875 32.472656 38.550781 33.167969 37.101562 33.101562 C 34.507812 33 32.222656 30.664062 32.105469 27.960938 C 31.960938 25.445312 33.863281 23.757812 36.25 24.070312 C 37.582031 24.304688 38.820312 25.128906 39.671875 26.222656 C 40.402344 26.71875 41.15625 27.082031 41.871094 27.265625 C 42.527344 27.453125 43.058594 27.460938 43.433594 27.320312 " fill-opacity="1" fill-rule="evenodd"/><path fill="#737373" d="M 43.40625 47.199219 C 44.054688 46.144531 44.796875 45.289062 45.34375 44.972656 C 45.707031 44.707031 45.820312 44.839844 45.707031 45.234375 L 45.710938 45.238281 C 44.878906 47.292969 43.742188 49.191406 42.351562 50.875 C 42.109375 51.113281 41.976562 51.109375 41.972656 50.855469 C 41.683594 50.882812 41.234375 51.019531 40.632812 51.300781 C 39.980469 51.570312 39.269531 51.960938 38.582031 52.414062 C 37.710938 53.300781 36.539062 54.027344 35.324219 54.34375 C 33.152344 54.773438 31.5 53.664062 31.730469 51.695312 C 31.921875 49.453125 34.195312 47.316406 36.699219 47.074219 C 38.089844 46.902344 39.152344 47.417969 39.667969 48.28125 C 40.246094 48.488281 40.90625 48.5 41.613281 48.285156 C 42.253906 48.082031 42.863281 47.695312 43.40625 47.199219 " fill-opacity="1" fill-rule="evenodd"/><g clip-path="url(#42b4921f9d)"><path fill="#737373" d="M 9.449219 37.410156 C 10.105469 36.21875 11.226562 35.421875 12.566406 35.386719 C 15.007812 35.335938 17.128906 37.640625 17.167969 40.511719 C 17.261719 43.308594 15.296875 45.34375 12.925781 45.117188 C 11.628906 44.964844 10.46875 44.101562 9.722656 42.925781 C 9.066406 42.449219 8.386719 42.128906 7.742188 42.039062 C 7.15625 41.9375 6.679688 42.039062 6.335938 42.308594 C 6.148438 43.144531 5.8125 43.53125 5.429688 43.25 C 5.257812 43.078125 5.09375 42.679688 4.945312 42.140625 L 4.941406 42.136719 C 4.570312 40.558594 4.375 38.914062 4.375 37.21875 C 4.375 37.1875 4.375 37.15625 4.375 37.121094 C 4.414062 36.382812 4.550781 35.863281 4.792969 35.816406 C 5.195312 35.761719 5.648438 36.359375 5.988281 37.390625 C 6.394531 37.777344 6.90625 38.007812 7.503906 38.019531 C 8.160156 38.027344 8.824219 37.808594 9.449219 37.410156 " fill-opacity="1" fill-rule="evenodd"/></g><path fill="#737373" d="M 13.421875 54.648438 C 13.542969 54.511719 14.179688 54.59375 15.234375 54.988281 C 17.164062 55.546875 19.195312 56.792969 19.640625 57.539062 C 19.808594 57.710938 19.769531 57.769531 19.597656 57.742188 L 19.597656 57.746094 C 17.121094 56.996094 14.835938 55.8125 12.832031 54.28125 L 13.421875 54.648438 " fill-opacity="1" fill-rule="evenodd"/><g fill="#737373" fill-opacity="1"><g transform="translate(56.034111, 45.570532)"><g><path d="M 4.890625 -10.09375 L 4.890625 0 L 1.1875 0 L 1.1875 -16.25 L 4.890625 -16.25 L 11.34375 -6.171875 L 11.390625 -6.171875 L 11.390625 -16.25 L 15.09375 -16.25 L 15.09375 0 L 11.390625 0 L 4.921875 -10.09375 Z M 4.890625 -10.09375 "/></g></g></g><g fill="#737373" fill-opacity="1"><g transform="translate(73.603884, 45.570532)"><g><path d="M 13.671875 -16.25 L 13.671875 -5.765625 C 13.671875 -3.773438 13.128906 -2.265625 12.046875 -1.234375 C 10.972656 -0.210938 9.398438 0.296875 7.328125 0.296875 C 5.253906 0.296875 3.675781 -0.210938 2.59375 -1.234375 C 1.519531 -2.265625 0.984375 -3.773438 0.984375 -5.765625 L 0.984375 -16.25 L 4.6875 -16.25 L 4.6875 -6.859375 C 4.6875 -5.546875 4.894531 -4.628906 5.3125 -4.109375 C 5.726562 -3.597656 6.398438 -3.34375 7.328125 -3.34375 C 8.265625 -3.34375 8.9375 -3.597656 9.34375 -4.109375 C 9.757812 -4.628906 9.96875 -5.546875 9.96875 -6.859375 L 9.96875 -16.25 Z M 13.671875 -16.25 "/></g></g></g><g fill="#737373" fill-opacity="1"><g transform="translate(89.55851, 45.570532)"><g><path d="M 6.265625 0 L -0.546875 -16.25 L 3.625 -16.25 L 7.71875 -5.578125 L 11.828125 -16.25 L 16 -16.25 L 9.1875 0 Z M 6.265625 0 "/></g></g></g><g fill="#737373" fill-opacity="1"><g transform="translate(106.30102, 45.570532)"><g><path d="M 4.890625 -16.25 L 4.890625 0 L 1.1875 0 L 1.1875 -16.25 Z M 4.890625 -16.25 "/></g></g></g><g fill="#737373" fill-opacity="1"><g transform="translate(113.667807, 45.570532)"><g><path d="M 1.1875 -16.25 L 7 -16.25 C 8.5625 -16.25 9.832031 -15.832031 10.8125 -15 C 11.800781 -14.164062 12.296875 -12.972656 12.296875 -11.421875 C 12.296875 -10.234375 11.992188 -9.234375 11.390625 -8.421875 C 10.796875 -7.617188 9.988281 -7.050781 8.96875 -6.71875 L 14.5625 0 L 9.859375 0 L 4.890625 -6.421875 L 4.890625 0 L 1.1875 0 Z M 4.890625 -9.046875 L 5.3125 -9.046875 C 5.65625 -9.046875 5.945312 -9.050781 6.1875 -9.0625 C 6.425781 -9.070312 6.695312 -9.113281 7 -9.1875 C 7.300781 -9.269531 7.539062 -9.382812 7.71875 -9.53125 C 7.90625 -9.675781 8.0625 -9.882812 8.1875 -10.15625 C 8.320312 -10.4375 8.390625 -10.773438 8.390625 -11.171875 C 8.390625 -11.566406 8.320312 -11.898438 8.1875 -12.171875 C 8.0625 -12.453125 7.90625 -12.664062 7.71875 -12.8125 C 7.539062 -12.957031 7.300781 -13.066406 7 -13.140625 C 6.695312 -13.222656 6.425781 -13.269531 6.1875 -13.28125 C 5.945312 -13.289062 5.65625 -13.296875 5.3125 -13.296875 L 4.890625 -13.296875 Z M 4.890625 -9.046875 "/></g></g></g><g fill="#737373" fill-opacity="1"><g transform="translate(129.070923, 45.570532)"><g><path d="M 9.4375 -16.25 L 16 0 L 12.015625 0 L 10.8125 -3.25 L 4.625 -3.25 L 3.421875 0 L -0.546875 0 L 6.015625 -16.25 Z M 9.5625 -6.5 L 7.75 -11.234375 L 7.703125 -11.234375 L 5.890625 -6.5 Z M 9.5625 -6.5 "/></g></g></g></svg>